<?xml version="1.0" standalone="no"?>
<!DOCTYPE svg PUBLIC "-//W3C//DTD SVG 20010904//EN"
 "http://www.w3.org/TR/2001/REC-SVG-20010904/DTD/svg10.dtd">
<svg version="1.0" xmlns="http://www.w3.org/2000/svg"
 width="512.000000pt" height="512.000000pt" viewBox="0 0 512.000000 512.000000"
 preserveAspectRatio="xMidYMid meet">
<metadata>
Created by potrace 1.11, written by Peter Selinger 2001-2013
</metadata>
<g transform="translate(0.000000,512.000000) scale(0.100000,-0.100000)"
fill="#000000" stroke="none">
<path d="M0 2560 l0 -2560 2560 0 2560 0 0 2560 0 2560 -2560 0 -2560 0 0
-2560z m2905 1933 c3 -10 166 -441 360 -958 195 -517 357 -948 360 -958 7 -16
-10 -17 -311 -15 l-317 3 -18 55 c-10 30 -32 101 -49 158 l-32 102 -341 0
-342 0 -46 -158 -46 -157 -311 -3 -311 -2 22 58 c12 32 177 471 367 975 l345
917 331 0 c307 0 332 -1 339 -17z m-52 -2667 c83 -19 178 -68 217 -113 34 -38
72 -108 90 -168 9 -28 15 -157 19 -420 7 -364 8 -382 29 -428 12 -27 22 -51
22 -53 0 -2 -96 -4 -213 -4 l-213 0 -17 34 c-8 19 -19 50 -22 69 l-7 36 -56
-46 c-101 -83 -233 -123 -399 -123 -154 0 -260 36 -337 113 -143 143 -122 394
41 497 64 41 141 64 354 109 101 22 225 52 274 68 l90 29 -1 41 c-1 86 -60
120 -187 110 -104 -9 -137 -30 -192 -121 -9 -16 -22 -16 -190 4 -265 30 -248
25 -241 63 10 52 55 140 89 175 72 74 158 114 297 137 111 19 455 13 553 -9z"/>
<path d="M2456 3658 c-55 -178 -101 -331 -104 -340 -4 -17 11 -18 208 -18 197
0 212 1 208 18 -28 103 -204 662 -208 662 -3 0 -50 -145 -104 -322z"/>
<path d="M2700 1188 c-14 -5 -79 -25 -144 -44 -65 -19 -136 -44 -157 -55 -93
-47 -92 -175 1 -213 85 -34 186 -10 260 62 56 55 72 101 68 196 -3 63 -3 63
-28 54z"/>
</g>
</svg>
